<?xml version="1.0" encoding="UTF-8"?>
<svg id="Layer_1" xmlns="http://www.w3.org/2000/svg" version="1.1" viewBox="0 0 24 24">
  <!-- Generator: Adobe Illustrator 29.5.1, SVG Export Plug-In . SVG Version: 2.1.0 Build 141)  -->
  <defs>
    <style>
      .st0 {
        fill: #282828;
      }
    </style>
  </defs>
  <path class="st0" d="M20,21c-2.1,0-4.1-.5-6.2-1.4-2-.9-3.9-2.2-5.6-3.9s-3-3.5-3.9-5.6c-.9-2-1.4-4.1-1.4-6.2s.1-.6.3-.8.5-.3.8-.3h4.1c.2,0,.4,0,.6.2s.3.3.3.6l.7,3.5c0,.3,0,.5,0,.7s-.1.3-.3.5l-2.4,2.5c.3.6.7,1.2,1.2,1.8s1,1.1,1.5,1.7c.5.5,1.1,1,1.6,1.4s1.2.8,1.8,1.2l2.4-2.4c.2-.2.3-.3.6-.3s.5,0,.7,0l3.5.7c.2,0,.4.2.6.4s.2.4.2.6v4.1c0,.3-.1.6-.3.8s-.5.3-.8.3ZM6,9l1.7-1.7-.4-2.4h-2.2c0,.7.2,1.4.4,2s.4,1.3.7,2ZM15,17.9c.7.3,1.3.5,2,.7s1.4.3,2,.3v-2.2l-2.4-.5-1.7,1.7Z"/>
</svg>